<svg xmlns="http://www.w3.org/2000/svg" version="1.1" xmlns:xlink="http://www.w3.org/1999/xlink" xmlns:svgjs="http://svgjs.com/svgjs" height="277.47999572753906" width="274.7851623535156"><defs id="SvgjsDefs1319"></defs><g id="SvgjsG1320" rel="mainfill" name="main_text" xmlns:name="main_text" transform="translate(47.18757755756377,-98.44500732421875)" fill="#a77c5a"><path d="M27.40 215.04L8.52 236.96L27.80 236.96L27.80 240L1.42 240L1.42 236.55L20.29 214.63L1.83 214.63L1.83 211.59L27.40 211.59L27.40 215.04ZM36.73 233.30Q36.73 237.16 41.40 237.16L47.08 237.16L47.08 229.45L41.40 229.45Q36.73 229.45 36.73 233.30M47.08 226.61Q47.08 223.68 45.56 222.30Q44.04 220.92 41.60 220.92Q39.77 220.92 38.03 221.47Q36.28 222.02 34.90 222.95L33.48 220.52Q34.38 219.91 35.45 219.46Q36.53 219.02 37.66 218.71Q38.80 218.41 39.92 218.25Q41.03 218.08 42.01 218.08Q44.60 218.08 46.59 218.69Q48.58 219.30 49.96 220.44Q51.34 221.57 52.05 223.14Q52.76 224.70 52.76 226.61L52.76 240L41.40 240Q35.88 240 33.26 238.34Q30.64 236.67 30.64 233.30Q30.64 229.93 33.26 228.27Q35.88 226.61 41.40 226.61L47.08 226.61ZM72.85 210.78Q76.55 210.78 79.83 212.04Q83.12 213.29 85.43 215.45L83.40 217.88Q81.09 215.73 78.55 214.78Q76.02 213.82 73.26 213.82Q71.19 213.82 69.44 214.53Q67.70 215.24 66.42 216.70Q65.14 218.16 64.43 220.42Q63.72 222.67 63.72 225.79Q63.72 229.00 64.45 231.29Q65.18 233.59 66.48 235.07Q67.78 236.55 69.63 237.26Q71.47 237.97 73.66 237.97Q75.49 237.97 76.81 237.65Q78.13 237.32 79.02 236.87Q80.08 236.39 80.77 235.74L80.77 228.03L75.49 228.03L75.49 225.39L86.65 225.39L86.65 236.55Q85.15 237.77 83.16 238.70Q81.46 239.51 78.96 240.16Q76.46 240.81 73.26 240.81Q69.61 240.81 66.68 239.84Q63.76 238.86 61.69 236.96Q59.62 235.05 58.53 232.25Q57.43 229.45 57.43 225.79Q57.43 222.14 58.53 219.34Q59.62 216.54 61.63 214.63Q63.64 212.73 66.50 211.75Q69.36 210.78 72.85 210.78ZM97.20 240L91.52 240L91.52 211.59L97.20 211.59L97.20 240ZM107.55 233.30Q107.55 237.16 112.22 237.16L117.90 237.16L117.90 229.45L112.22 229.45Q107.55 229.45 107.55 233.30M117.90 226.61Q117.90 223.68 116.38 222.30Q114.86 220.92 112.42 220.92Q110.60 220.92 108.85 221.47Q107.11 222.02 105.73 222.95L104.31 220.52Q105.20 219.91 106.28 219.46Q107.35 219.02 108.49 218.71Q109.62 218.41 110.74 218.25Q111.86 218.08 112.83 218.08Q115.43 218.08 117.42 218.69Q119.40 219.30 120.78 220.44Q122.16 221.57 122.87 223.14Q123.59 224.70 123.59 226.61L123.59 240L112.22 240Q106.70 240 104.08 238.34Q101.47 236.67 101.47 233.30Q101.47 229.93 104.08 228.27Q106.70 226.61 112.22 226.61L117.90 226.61ZM153.62 215.04L134.75 236.96L154.02 236.96L154.02 240L127.64 240L127.64 236.55L146.52 214.63L128.05 214.63L128.05 211.59L153.62 211.59L153.62 215.04ZM162.95 233.30Q162.95 237.16 167.62 237.16L173.30 237.16L173.30 229.45L167.62 229.45Q162.95 229.45 162.95 233.30M173.30 226.61Q173.30 223.68 171.78 222.30Q170.26 220.92 167.82 220.92Q166.00 220.92 164.25 221.47Q162.51 222.02 161.13 222.95L159.71 220.52Q160.60 219.91 161.68 219.46Q162.75 219.02 163.89 218.71Q165.02 218.41 166.14 218.25Q167.26 218.08 168.23 218.08Q170.83 218.08 172.82 218.69Q174.80 219.30 176.18 220.44Q177.56 221.57 178.28 223.14Q178.99 224.70 178.99 226.61L178.99 240L167.62 240Q162.10 240 159.48 238.34Q156.87 236.67 156.87 233.30Q156.87 229.93 159.48 228.27Q162.10 226.61 167.62 226.61L173.30 226.61Z" fill="#a77c5a" style="fill:#a77c5a;"></path></g><g id="SvgjsG1321" rel="mainfill" name="slogan_text" xmlns:name="slogan_text" transform="translate(57.60757989883422,-72.31500244140625)" fill="#a77c5a"><path d="M10.52 226.36C10.17 225.67 9.62 225.03 8.98 224.61C8.20 224.08 7.41 223.89 6.44 223.89C3.87 223.89 2.00 225.53 2.00 227.98C2.00 229.17 2.40 229.90 3.09 230.57C3.80 231.26 4.59 231.59 5.20 231.88L6.63 232.54C7.46 232.92 8.08 233.21 8.53 233.63C9.10 234.16 9.31 234.77 9.31 235.49C9.31 237.08 8.29 238.62 6.13 238.62C5.32 238.62 4.54 238.43 3.85 237.74C3.40 237.27 3.02 236.56 2.90 235.72L1.19 236.20C1.40 237.15 1.88 238.24 2.66 239.00C3.75 240.07 5.06 240.29 6.11 240.29C8.96 240.29 11.12 238.34 11.12 235.41C11.12 234.27 10.79 233.35 9.98 232.54C9.31 231.88 8.46 231.45 7.53 231.04L6.01 230.38C5.42 230.12 4.82 229.86 4.35 229.38C3.92 228.98 3.75 228.62 3.75 228.00C3.75 226.53 4.85 225.56 6.41 225.56C7.32 225.56 7.89 225.86 8.20 226.10C8.55 226.39 8.91 226.86 9.12 227.29ZM15.63 230.14L13.92 230.14L13.92 236.08C13.92 237.29 14.04 238.19 14.82 239.05C15.70 239.98 16.87 240.29 17.84 240.29C18.82 240.29 19.98 239.98 20.86 239.05C21.64 238.19 21.76 237.29 21.76 236.08L21.76 230.14L20.05 230.14L20.05 235.89C20.05 236.58 20.05 237.39 19.58 238.00C19.31 238.34 18.79 238.76 17.84 238.76C16.89 238.76 16.37 238.34 16.11 238.00C15.63 237.39 15.63 236.58 15.63 235.89ZM24.99 240L26.70 240L26.70 234.84C26.70 234.13 26.75 232.97 27.41 232.18C27.91 231.59 28.56 231.42 29.15 231.42C29.91 231.42 30.43 231.71 30.76 232.14C31.17 232.66 31.22 233.35 31.22 233.94L31.22 240L32.93 240L32.93 233.89C32.93 232.80 32.86 231.99 32.36 231.26C31.76 230.38 30.69 229.90 29.53 229.90C27.89 229.90 27.01 230.88 26.70 231.28L26.70 230.14L24.99 230.14ZM43.71 231.54C42.93 230.52 41.79 229.90 40.34 229.90C39.01 229.90 37.80 230.43 36.97 231.23C36.25 231.95 35.54 233.13 35.54 235.06C35.54 237.05 36.30 238.29 36.97 238.95C37.73 239.71 38.89 240.29 40.34 240.29C42.07 240.29 43.14 239.36 43.71 238.62L43.71 240.05C43.71 240.88 43.66 241.76 43.17 242.57C42.60 243.52 41.76 243.94 40.55 243.94C39.79 243.94 38.89 243.78 38.18 242.99C37.75 242.52 37.42 241.78 37.42 240.95L35.73 240.95C35.73 242.40 36.35 243.47 37.01 244.13C37.68 244.80 38.84 245.46 40.53 245.46C42.38 245.46 43.74 244.63 44.47 243.63C45.42 242.35 45.42 240.83 45.42 239.76L45.42 230.14L43.71 230.14ZM40.53 231.42C41.41 231.42 42.22 231.76 42.76 232.30C43.38 232.90 43.81 233.92 43.81 235.08C43.81 236.25 43.36 237.29 42.69 237.93C42.14 238.48 41.43 238.76 40.53 238.76C39.63 238.76 38.96 238.46 38.41 237.96C37.46 237.08 37.30 235.91 37.30 235.06C37.30 234.25 37.46 233.21 38.30 232.35C38.77 231.88 39.48 231.42 40.53 231.42ZM48.65 222.68L48.65 240L50.36 240L50.36 222.68ZM61.15 231.54C60.70 230.95 59.68 229.90 57.78 229.90C55.26 229.90 52.98 231.66 52.98 235.06C52.98 238.53 55.28 240.29 57.78 240.29C59.51 240.29 60.58 239.36 61.15 238.62L61.15 240L62.86 240L62.86 230.14L61.15 230.14ZM57.97 231.42C59.49 231.42 61.24 232.54 61.24 235.08C61.24 237.03 60.06 238.76 57.97 238.76C55.92 238.76 54.73 237.17 54.73 235.06C54.73 232.66 56.28 231.42 57.97 231.42ZM71.55 231.69C70.77 230.00 69.37 229.90 68.85 229.90C67.18 229.90 65.97 230.93 65.97 232.66C65.97 233.16 66.04 233.63 66.42 234.11C66.87 234.65 67.63 235.03 68.82 235.56C69.75 235.96 70.41 236.27 70.41 237.20C70.41 237.93 69.92 238.76 68.80 238.76C67.56 238.76 66.99 237.67 66.80 237.15L65.33 237.77C66.16 240.24 68.37 240.29 68.78 240.29C70.68 240.29 72.17 239.12 72.17 237.05C72.17 236.51 72.08 235.99 71.65 235.46C71.27 234.99 70.60 234.54 69.18 233.94C68.06 233.47 67.59 233.25 67.59 232.54C67.59 231.78 68.16 231.42 68.78 231.42C69.42 231.42 69.92 231.85 70.15 232.42ZM79.92 231.69C79.13 230.00 77.73 229.90 77.21 229.90C75.55 229.90 74.33 230.93 74.33 232.66C74.33 233.16 74.41 233.63 74.79 234.11C75.24 234.65 76.00 235.03 77.18 235.56C78.11 235.96 78.78 236.27 78.78 237.20C78.78 237.93 78.28 238.76 77.16 238.76C75.93 238.76 75.36 237.67 75.17 237.15L73.69 237.77C74.52 240.24 76.73 240.29 77.14 240.29C79.04 240.29 80.53 239.12 80.53 237.05C80.53 236.51 80.44 235.99 80.01 235.46C79.63 234.99 78.97 234.54 77.54 233.94C76.42 233.47 75.95 233.25 75.95 232.54C75.95 231.78 76.52 231.42 77.14 231.42C77.78 231.42 78.28 231.85 78.52 232.42ZM90.13 236.70C89.92 237.17 89.56 237.67 89.11 238.05C88.54 238.53 87.90 238.76 87.09 238.76C85.38 238.76 83.98 237.46 83.96 235.41L91.63 235.41C91.68 234.11 91.32 232.59 90.70 231.71C90.11 230.85 88.90 229.90 86.97 229.90C84.00 229.90 82.20 232.18 82.20 235.13C82.20 238.79 84.69 240.29 87.07 240.29C88.33 240.29 89.44 239.88 90.35 239.07C90.84 238.62 91.27 238.03 91.56 237.48ZM84.07 233.99C84.34 232.52 85.52 231.42 86.97 231.42C88.42 231.42 89.59 232.45 89.87 233.99ZM99.71 231.69C98.92 230.00 97.52 229.90 97.00 229.90C95.33 229.90 94.12 230.93 94.12 232.66C94.12 233.16 94.19 233.63 94.57 234.11C95.03 234.65 95.79 235.03 96.97 235.56C97.90 235.96 98.57 236.27 98.57 237.20C98.57 237.93 98.07 238.76 96.95 238.76C95.71 238.76 95.14 237.67 94.95 237.15L93.48 237.77C94.31 240.24 96.52 240.29 96.93 240.29C98.83 240.29 100.32 239.12 100.32 237.05C100.32 236.51 100.23 235.99 99.80 235.46C99.42 234.99 98.76 234.54 97.33 233.94C96.21 233.47 95.74 233.25 95.74 232.54C95.74 231.78 96.31 231.42 96.93 231.42C97.57 231.42 98.07 231.85 98.30 232.42ZM116.88 223.28L107.00 237.01L115.12 237.01L115.12 240L116.88 240L116.88 237.01L118.83 237.01L118.83 235.39L116.88 235.39ZM110.11 235.39L115.12 228.38L115.12 235.39ZM127.14 245.46L129.05 245.46L136.29 230.14L134.39 230.14L131.18 237.20L127.69 230.14L125.74 230.14L130.28 239.07ZM142.71 240.29C145.70 240.29 147.93 238.10 147.93 235.11C147.93 232.11 145.72 229.90 142.71 229.90C139.69 229.90 137.48 232.11 137.48 235.11C137.48 238.10 139.71 240.29 142.71 240.29ZM142.71 231.42C144.51 231.42 146.17 232.68 146.17 235.11C146.17 237.51 144.49 238.76 142.71 238.76C140.95 238.76 139.24 237.53 139.24 235.11C139.24 232.71 140.90 231.42 142.71 231.42ZM152.26 230.14L150.54 230.14L150.54 236.08C150.54 237.29 150.66 238.19 151.45 239.05C152.33 239.98 153.49 240.29 154.46 240.29C155.44 240.29 156.60 239.98 157.48 239.05C158.27 238.19 158.38 237.29 158.38 236.08L158.38 230.14L156.67 230.14L156.67 235.89C156.67 236.58 156.67 237.39 156.20 238.00C155.94 238.34 155.41 238.76 154.46 238.76C153.51 238.76 152.99 238.34 152.73 238.00C152.26 237.39 152.26 236.58 152.26 235.89Z" fill="#a77c5a" style="fill: #a77c5a"></path></g><g id="SvgjsG1322" transform="translate(0.02153896540403366,0.09999999403953552) scale(2.8)" rel="mainfill" name="outline_container" xmlns:name="outlineContainer_mainfill" fill="#606060"><g fill="#606060"><path d="M39.1 98.3zM61.3 98.4zM22.7 98.7zM69.5 98.4zM82.7 98.3zM54.6.6zM1.1 36.9zM2.9 97.1zM12 98.4zM.8 47.9zM1.8 64.3zM64.9 98.5zM98.1 2.2H98v-.8h-.1a.9.9 0 0 1-.1-.4V.9h-.1v.5-.3h-1.5c-.2 0-.3-.1-.2-.1s.3-.1.2-.2l-.6-.3h-6.7c-.1 0-.1.1 0 .1h.5v.1H77.6l-.5.2h-3.4c.1 0 0 .1-.2.1h-4.2l-.5-.3h-5.5c.1.1-.1.1-.3.2s-.5.2-.5.3h-2c-.4 0-.6-.1-.4-.2h.2c-.1-.1 0-.1.1-.2H59c-.5.1-1 .1-.8.2h-3.5l-.8-.2c-.1 0-.1-.1.1-.1h-3.4L49.4.6h.5c-.3.1-.9.2-.9.4h-9.5c-.4 0-.5-.1-.1-.2h-.9c-.3 0-.4.1-.3.1l.3.2h-4.4l.4.2h.3c-.2 0-.2-.1-.1-.1H33l.4.2H35l-.6.2h-2.5c-.3 0-.3-.1-.1-.2L30 1.3h1.1c.1 0 0-.1 0-.1h.9l.2-.2.3-.2.9-.2h4.4c-.2-.1-.4-.1-.3-.2h-.2L36.1.1h-7.3c-.2.1.2.1 0 .2h-.2V.2l.2-.2H25l.9.2h.6c.3 0 .1.1.1.1H22l-.3-.2h-1.4c-.1 0 0 .1.1.1s.1 0 0 .1h-5.6c-.1 0-.1-.1 0-.1h1.3c-.1 0 0-.1.1-.1s.2-.1 0-.1h-.6c.1 0 .1-.1 0-.1h-1.8c.1.1.2.1.1.2s.1.1.2.2.1.2-.2.3h-.2c-.2-.2 0-.3 0-.5h.2l-.9.3H7.8L7 .8H4.2l.3-.3h-.8L2.5.8h-.2L1.6.5h-.5l-.2.7a1.7 1.7 0 0 0 0 .3 1.8 1.8 0 0 0 .1.8c.1.1.1-.3.1-.5v-.3c0-.1 0-.1.1 0s.1.2.1.1.1.1.1.2a6.1 6.1 0 0 0 0 1c0 .2 0 .4-.1.3s-.1.1-.1.2a4.1 4.1 0 0 1 0 .4 5.5 5.5 0 0 0 .1 1v.4a2 2 0 0 1 0 .6 1.9 1.9 0 0 1-.1.3c-.1 0-.1.4-.2.3-.1 0-.2.4-.1 1a6.6 6.6 0 0 1 0 1.2c.1.3 0 .9.1 1.2s.2.3.3-.5a1.9 1.9 0 0 1 0 .3 2.2 2.2 0 0 0 .1.7c0 .2.1 0 .1-.1h.1s.1.2.1.3-.1 1-.1 1.6h.1a2 2 0 0 1 0 .4.9.9 0 0 1 0-.1V12h-.2v-.4c0-.3 0-.4-.1-.3s-.2 0-.3-.5v-.3c0-.1-.1-.1-.1.1v.5a2.3 2.3 0 0 0 0 .6 3 3 0 0 1 0 .8H.5v.2-.7a1.4 1.4 0 0 0 0 .2 1.6 1.6 0 0 0 .1.6c.1.1.2.3.3-.1s.1.1.1.3v.5a1.6 1.6 0 0 0 .1.6v-.5.4a.7.7 0 0 0 0 .3c0 .4 0 .9.1 1.3a1.8 1.8 0 0 1 0 .3v1.3c0 .2-.1.2-.1.1s-.2-.1-.3 0a1.6 1.6 0 0 0 0 .3c.1.1.1 0 .2.2s.1.1.2.1a2.3 2.3 0 0 1 0 .3v.3H.7a1.9 1.9 0 0 0 0 .3c0 .2.1.1.2.1s.1.1.1.2a5.5 5.5 0 0 1 0 1.3 3.9 3.9 0 0 0 0 .4v.5l-.2.2V21v1.3c0 .3.1.6.1.6V23.5c0-.1.1-.1.1 0a.3.3 0 0 1 0 .2v.3c0 .1-.1 0-.1-.2v-.3c-.1 0-.1 0-.2.3H.6s-.1.1 0 .3a4.8 4.8 0 0 1 0 1.2c0 .2 0 .3.1.3s.3-.4.4-.6H1a3.5 3.5 0 0 1 .1.7H1s-.1.1-.1.3v.4a1.4 1.4 0 0 1 0 .4c0-.2-.1-.2-.2-.5v-.2c0-.1-.1 0-.1.1a9.6 9.6 0 0 1-.1 1.3c.1.2.1-.1.2.1h.2l.2.2c.1-.3.1 0 .2 0v-.6.7c-.1.1-.1.2-.1.5s.1.8.2.7l.2-.2c.1 0 .1.2.1.4a5.9 5.9 0 0 0 0 .9c.1.1.1.1.2-.1s.1-.2.1-.1v.2a2.7 2.7 0 0 1 0 .3c-.1 0-.1.1-.2.4s-.1 0-.1-.1v-.7.3a3.2 3.2 0 0 1-.2.7 3.4 3.4 0 0 0 .3 1.3.9.9 0 0 1 0 .2v.5c0 .2 0 .5-.1.7a.7.7 0 0 0 .1.3h.1v.4a2.2 2.2 0 0 0-.1.5s.1.2.1.4c.1 0 .1.1.1.4V35.2 36.9c0 .3-.1-.6-.2-.6v.2c0-.2 0-.2-.1 0s0-.3.1-.3a1.6 1.6 0 0 0 0-.2H1a2 2 0 0 0-.1.9v-.3H1a4.9 4.9 0 0 1 .1.8v.3c0 .1-.1.1-.1-.1a2.2 2.2 0 0 0-.1-.8 1 1 0 0 0 0 .5 1.5 1.5 0 0 1 0 .4H.8a7.2 7.2 0 0 0 0-.8c-.1-.1-.2.1-.3 0a1.6 1.6 0 0 0 0 .3v.2a1.6 1.6 0 0 1 .1.4 2.6 2.6 0 0 1-.1.7 2.1 2.1 0 0 0 0 .4c0 .4 0 .5-.1.5v.8c0-.1.1-.2.1-.2s.2.3.3.3v.2s.1 0 .1.2v-.2.4c0 .6.1.8.1 1.4a4 4 0 0 0 .1-.6c0-.2.1-.3.1-.2a1.1 1.1 0 0 1 0 .5c-.1.4-.1.9-.2 1.2s0 .3 0 .4a6.2 6.2 0 0 1 .1 1.4c0 .1 0 .2.1.1v-.2.1c.1-.2.2-.1.3.2a1.5 1.5 0 0 1 0 .4c-.1.4-.2.6-.4.2a7.3 7.3 0 0 1 0 1.1c0 .4-.1.2-.2.4s-.1.2-.2.2-.1.1-.1.3h.1c-.1-.1-.1 0-.1.4V50a.7.7 0 0 1 0 .1V49.2c-.1-.1-.1-.2-.1-.6V48v-.1.2a1 1 0 0 0 0 .2 2.8 2.8 0 0 1-.2.7 1.3 1.3 0 0 0 0 .4v.2a1.2 1.2 0 0 1 0 .5v.6h.3v.3c0 .1.1.1.1-.1a5.7 5.7 0 0 1 0-.7l.2-.2c.1-.1.1 0 .2-.2V49a1.1 1.1 0 0 1 .1.4 4.8 4.8 0 0 1 .1 1.4v.4a2 2 0 0 1 0 .7v.3-.2-.3c0-.1 0-.3-.1-.2s-.1.1-.2.4a4.4 4.4 0 0 0-.1.7 2.4 2.4 0 0 1-.1.5v.6a5.2 5.2 0 0 0 .2.8 2.3 2.3 0 0 1 .1.8v.7H1a3.5 3.5 0 0 0 0-1.1.8.8 0 0 1 0-.2h.1a10.9 10.9 0 0 0 .1 1.7 4.9 4.9 0 0 1 0 1.1 4.1 4.1 0 0 1-.1.6.5.5 0 0 1 0-.3 2.5 2.5 0 0 0-.2-1.2v-.2.1a1.2 1.2 0 0 0 0 .3v.2a1.4 1.4 0 0 1 .1.7c0 .2 0 .2-.1.2s0-.2 0-.3H.7v.9a2 2 0 0 1 0 .3H.6v-1.3V57.8a1.1 1.1 0 0 0-.1.6v.9a2.5 2.5 0 0 1-.2.7 2.4 2.4 0 0 0-.1 1.3 2.1 2.1 0 0 0 .2.8 1.4 1.4 0 0 1 .1.5v.4l.2.2v1a1.2 1.2 0 0 1 0 .3H.6v-.6c0-.1-.1 0-.1.1s-.1-.1-.1-.3a1.6 1.6 0 0 1 0-.4V63c-.1.2-.1 0-.2.1v1a.9.9 0 0 0 0 .4 1.3 1.3 0 0 0 .1.5 7.2 7.2 0 0 0 0 1 3.6 3.6 0 0 1 0 .6c-.1.6-.1 1.3-.1 2v.2a1.1 1.1 0 0 1 0 .5 8.9 8.9 0 0 0 0 1.1c0 .3.1.6.1.6h.2v-.4a.8.8 0 0 0-.1-.4c-.1-.2 0-.5-.1-.7v-.3a1.7 1.7 0 0 1 0-.3 3.6 3.6 0 0 1 .4 1.8v.4H1a10.5 10.5 0 0 0-.1-1V70a1 1 0 0 1 .1.6v1.5a.9.9 0 0 1-.1.4c-.1.2-.1.3-.2 1.1a1.4 1.4 0 0 1 0 .3c-.1.1-.1.5-.2.7s-.1.2-.2 0-.1-.1-.2-.2h.2a3.4 3.4 0 0 1 0 .6c0 .3 0 .4.1.4l.2-.2c.1.3.1.7.2 1.1a1.1 1.1 0 0 1 0 .3c-.1 0-.2.1-.3-.2H.3c-.1.1-.1.2-.2.2s-.1.3-.1.4v1.7c0 .5 0 .2.1.2a.6.6 0 0 0 0-.4v-.4h.1c.1.1.1.5.1.6h.1V78.1v1c0 .2.1.2.1.1s.1-.3.1-.2a.3.3 0 0 0 .5.1c.1 0 .1.2.1.5a1.3 1.3 0 0 0 .1.6v.3c0 .3-.1.3-.1.3v.8a1.6 1.6 0 0 0 .1.9.6.6 0 0 1 0 .3h-.2v.4a5.7 5.7 0 0 0 0 .6h.1c.1 0 .1.2.1.4a1.2 1.2 0 0 1 0 .6c0 .2 0 .3.1.3h.2a.8.8 0 0 1 .1.3 4.1 4.1 0 0 1 0 .5v.8h-.3c-.1-.1-.1-.1-.2.3s0 .4 0 .6-.1.7-.2.6 0-.9-.1-1.4a10.3 10.3 0 0 0-.1 1.5v1.6a3.4 3.4 0 0 1-.1.8c0-.2-.1 0-.2-.1v.3a1.1 1.1 0 0 0 0 .4c0 .1 0 .3.1.2V91c0-.1.1 0 .1.2v.8a5.5 5.5 0 0 1 0 .6c-.1-.2-.1-.2-.2.1v.3H.2v-.4.1a21.7 21.7 0 0 0 0 2.2c0 .4 0 .9.1 1.3a3.4 3.4 0 0 1 0 .9v1.2H4l1.1-.2v.2h1.4c-.2-.1-.3-.1-.1-.2l.2-.2h1.2c0-.2.2-.2 1.2-.2h1.1l.3-.2h1.5c-.3.1-.4.1-.3.2H9.3l-.7.2h6c.1.1-.1.1-.3.2h-3.1v.2h.8l1.1-.2h.6l.8.2.7.2h2.6l.2.3h2l1.9-.2h2.9c.3-.1-.1-.1-.1-.2v-.3l.3-.1h3.6l-.7.2h1.6c-.1.1.2.1.1.2h4c.1 0 .1-.1 0-.1h-.5l-.5-.2H34l1 .2h3.4l.5.2h4.4c0-.1-.1-.2 0-.3h.9l-.3.3h1.4l.3-.4h1.1v.2c0 .1-.1.2-.5.2s0 0 0 .1h1l.5-.2c.4-.1 0-.2.2-.3 0-.1 0-.1.3-.1h2.6c.4 0 .7 0 .6-.1h.1a4.4 4.4 0 0 0 1.4-.1h1.5c.2 0 .2.1-.1.2s-.1 0 0 0h.7c.2 0 .2.1 0 .1-.1 0-.1 0 0 0h.8l1.4.3h1.4c-.4-.1-.3-.2-.3-.2h.3c-.3.1-.1.3 0 .4h2.1l.6-.3h.1c.4 0 .7-.1.7-.2h.5c.2.1.3.1-.2.2l-.6.3h.9v-.1H65c.1 0 .1.1 0 .1h-1l-.5-.2c.1.1-.2.1-.3.2H65l1-.2c.1 0 .1 0-.1-.1h-.6c-.1 0 0-.1.2-.1H65c-.1 0-.1-.1 0-.1h3.7l.2-.2h-1.2l.6-.2H71c.1 0 .1.1 0 .1h-2.4v.1h.3l.2.2c.1 0-.1.1.2.1h1.1c.2 0 .2.1.1.1l-1 .2h2.3c.3-.1.4-.1.2-.2h3.9v-.2h2.8c.2-.1 0-.2.1-.2h.7c.1.1 0 .1-.2.1h1.3v.1h10a3.2 3.2 0 0 1 1.9 0h.6c.1-.1-.3-.1-.3-.2a3.5 3.5 0 0 0 1.1-.1h.4l-.4.2h-.1c0 .1-.1.1.1.2h1.4c.2-.1.6-.2.6-.4h.9c.5-.1.6-.2.7-.3a.1.1 0 0 0 0-.1l-.2-.2h-.2l-.4-.2h-.1c-.4 0-.5-.1-.3-.2h-.2l-.9-.2-.9-.2h-.6l-1.1-.2H66.1c-.3.1-.5.1-.3.2h-.1l-1.1-.2H53.3l-1.1-.2H48c-.1-.1-.5-.2-1.1-.2h-1.4l-.4.2h-.9l-.9.2h-1c-.1 0-.1 0 0 0s.3-.1.1-.1h-.9c-.3 0-.2.1-.1.2h-1l-.2-.2h-2.4c-1.7 0-1.9-.1-1.7.3h-1l-.2-.2H32v.2h-2.8c0 .1 0 .1-.4.2h-18c.1.2.1.2-.4.3h-.5c0-.1-.3-.3-.5-.4H4.5c-.5 0-.8-.1-.7-.2h-.6v.7a1.2 1.2 0 0 0 0 .4v.2l-1.6-2.1h1.6a4.4 4.4 0 0 0 0-1v-1.6-2.1-3.9a6.6 6.6 0 0 0-.1-.9c-.1 0-.1 0-.1-.4-.1-.4-.1-.8-.1-1.2a4.4 4.4 0 0 1 0-.7h.2a2 2 0 0 0 .1-.9c0-.3-.1-.5-.1-.8a1.3 1.3 0 0 1 0-.3h.1a.9.9 0 0 0 .1-.5v-1.6c0-.6 0-1.1-.1-1.5a2.1 2.1 0 0 1 0-.7 2.2 2.2 0 0 0 0-.6 9.6 9.6 0 0 1 0-1.4c0-.5-.1-.9 0-1.4v-.5-1.1a11.6 11.6 0 0 0-.1-1.8 2.4 2.4 0 0 1 0-.9 4 4 0 0 0 .1-.7 9 9 0 0 0 0-1.5V67a2.7 2.7 0 0 0 0-.4 3.1 3.1 0 0 1 0-.8 5.7 5.7 0 0 1-.2 1c0-.2-.1-.4-.1-.6a12.8 12.8 0 0 1 0-1.5v-1.1c0-.1 0-.2.1-.1v.3a5.4 5.4 0 0 1 0 .6 5.5 5.5 0 0 0 .1.9v.8h.1a1.2 1.2 0 0 0 0-.3v-.3a1.4 1.4 0 0 1 0-.7 1.3 1.3 0 0 0 0-.3v-2c0-.4 0-.8.1-1.2s0-1.5 0-2.2v-.8a12.3 12.3 0 0 1 0-1.4 8.7 8.7 0 0 0 0-1.5 3.3 3.3 0 0 1 0-.5V54a1.8 1.8 0 0 0-.1-.6 1.8 1.8 0 0 1 0-.9v-.2-1.4-1.6a9.9 9.9 0 0 0 0-1.1 1 1 0 0 0-.1-.4 5.4 5.4 0 0 0 .1-1.1v-1.9a5.6 5.6 0 0 0 0-1.2c0-.5 0-1.2-.1-1.7a9.7 9.7 0 0 0-.1-1.2v-.4a.8.8 0 0 1 0-.4c.1 0 .2 0 .3-.5v-1.1-.6-1.1a1.4 1.4 0 0 0 0-.4c-.1-.3-.1-.5-.2-.4H3v-.4a1.1 1.1 0 0 0 .1-.6v-.6a2.2 2.2 0 0 0 0-.7 3.7 3.7 0 0 1-.1-1.4 1.7 1.7 0 0 0-.1-.9v-.4a2.5 2.5 0 0 0 .2-1.1V27h.2c0-.4 0-.8-.2-.9s-.1-.3-.1-.4v-1.9a3.9 3.9 0 0 1 .1-.8h.1v.4a1.5 1.5 0 0 0 .1-.9v-.9c0-.3-.1-.5-.1-.8a2.5 2.5 0 0 1 0-.8c0-.4 0-.9-.1-1.3 0-.5 0-.6.1-.6s.1-.1.1-.3V17v-.3c0 .3 0 .7-.1.5a2.4 2.4 0 0 1 0-.6c0-.2 0-.2.1-.1a2.4 2.4 0 0 0 .2-.9v-.4-.8a5.4 5.4 0 0 1 0-.9 1.2 1.2 0 0 1 0-.7 2.2 2.2 0 0 0 0-.6c0-.6-.1-1.6-.1-2.4V8a2.4 2.4 0 0 0-.1-.7v-.2a1.8 1.8 0 0 1 0-.7v-.2A2.7 2.7 0 0 0 3.4 5a2.9 2.9 0 0 1-.1-.4V3.2v-.3H1.6l1.9-1.8a4 4 0 0 1 0 .7A7.8 7.8 0 0 0 3.3 3h11.4a7.4 7.4 0 0 1 1.4-.1h1.8c.3 0 .2.1.2.1h41l2.2-.2h9.9l1 .2h20.1a5.2 5.2 0 0 0 2 .3h1.9V2a8.8 8.8 0 0 0 0-.9l1.5 1.5h-1.6a7.6 7.6 0 0 1 0 1V7a32.4 32.4 0 0 0 0 3.3v7.6a16.6 16.6 0 0 1 .1 2.2V34.2a7.7 7.7 0 0 0 0 .8 11.1 11.1 0 0 1 .1 1.8v.5a6.2 6.2 0 0 1 0 1.2 13.7 13.7 0 0 0-.1 2.2v10.8c0 .3 0 .4.1.5a1.7 1.7 0 0 1 0 .8v.2a2.2 2.2 0 0 0-.1.9V59.1c0 .2 0 1.6.1 2.4v4.6c0 .3.1 2.3 0 3.5s0 .3 0 .5c.1 2.3.1 4.6.1 7v3a9.5 9.5 0 0 0 0 1.5v.4a4 4 0 0 1 0 .9 13.4 13.4 0 0 0-.2 2.2v6.1a7 7 0 0 0 0 .9l.2 2.2a1.7 1.7 0 0 0 .1.4 4.3 4.3 0 0 1 .2 1 4.2 4.2 0 0 0 .3 1.1h.1a.8.8 0 0 0 .1-.3v-.6-1.3c0-.4 0-1.7.1-2.5s0-1.2.1-1.7v-1c0-.7.1-1.3.1-2v-2.5a9.3 9.3 0 0 0 0-1.2 9.5 9.5 0 0 1 0-1.1 3.2 3.2 0 0 1 .1-.7 4 4 0 0 0 .1-1.2c0-.4 0-.8-.1-1.2a6.8 6.8 0 0 1 0-.9V77c0-.4.1-.7.1-1.1V75c0-.3 0-.6-.1-.6v-.2a12.3 12.3 0 0 0-.1-1.9 6.1 6.1 0 0 1 0-1.1c0-.9.1-1.7.2-2.5a4.5 4.5 0 0 0 .1-1c0-.5 0-.9.1-1.4a8.8 8.8 0 0 0 0-2V64a6.9 6.9 0 0 1 0-1.2 9.4 9.4 0 0 0 0-2.1 7 7 0 0 1 .1-1.9c0-.3 0-.7-.1-.6s-.1 0-.1-.2v-.4a6 6 0 0 1 0-1.1 11.3 11.3 0 0 0 .1-1.5c0-.2 0-.4-.1-.3s-.2.3-.3 0-.1-.5-.2-.5a2.4 2.4 0 0 1 .1-1.1h.1c.1.1.1.1.2-.2v-.3-.8-1.9c0-.6 0-.6.1-.9s0-.4 0-.6a1 1 0 0 0-.1-.3c-.1 0-.2-.4-.2-.7a4.7 4.7 0 0 1-.1-.9v-3a4.9 4.9 0 0 1 .1-1.1 2.9 2.9 0 0 0 0-.7 1.5 1.5 0 0 1 .1-.6 1.7 1.7 0 0 0 .1-.7 13.9 13.9 0 0 1 0-1.4 5.1 5.1 0 0 0 0-1.1 11.3 11.3 0 0 1-.1-2v-1.6a5 5 0 0 0-.1-1 1.8 1.8 0 0 1 0-.9 6.9 6.9 0 0 0 .1-.7v-2.1c0-.2.1-.3.1-.3v-.6a6.6 6.6 0 0 0 0-1.2 3.2 3.2 0 0 0-.1-.7 2 2 0 0 1-.1-.7v-.8-.5c0-.2-.1-.4-.1-.3h-.1s-.1-.1-.1-.3v-.8c0-.3.1-.2.1-.3s.1-.1.1-.3v-.6a2.2 2.2 0 0 0 0-.9h-.1a1.8 1.8 0 0 1-.1-.6 2 2 0 0 1 .1-.7v-.5a4.4 4.4 0 0 0 0-1.1c-.1-.3-.1-.8-.2-1.1a3 3 0 0 1 0-1.1 1.7 1.7 0 0 0 .1-.5 5.1 5.1 0 0 1 .1-.9 4.2 4.2 0 0 0 0-1 24.1 24.1 0 0 1 0-2.7V9.3s-.1.2-.1.4V9.2a10.5 10.5 0 0 0 .1-1.3c0-.2.1-.3.1-.2a2.1 2.1 0 0 0 .2-1 3.9 3.9 0 0 1 .1-.8 2.4 2.4 0 0 0 .1-.5V4.3 2.7c0-.6.4-.4.3-.5zM35.8.4zm-4.5.4zM30 .6zm.1.2zm-29 7.7H1a.4.4 0 0 1 0-.2c0-.2 0-.2.1 0a1.3 1.3 0 0 1 0 .2zM1 39.3c0-.1 0-.1 0 0zm.1 1c-.1-.1-.1-.5-.2-.3s.1-.3.2-.3.1.2.1.4zm-.2 8.5H.8c0 .1 0 .2-.1.1a3.3 3.3 0 0 1 0-.4h.1v.3-.2.2zM.3 68.1zm0-1V67zm0 3.3zM.5 65a.8.8 0 0 1 0-.1c.1.2.1.2 0 .1zM.2 77.7a.6.6 0 0 1 0-.3.6.6 0 0 1 0 .3zM.5 95a1 1 0 0 1-.1-.5 1.2 1.2 0 0 1 0-.4c0-.1.1-.2.1-.1a1.9 1.9 0 0 1 0 .4 3.2 3.2 0 0 1 0 .4zm.1 1.9v-.2a1.7 1.7 0 0 1 0-.3v-.2.4zm88.6 1.5zm0-.8zm-.1.1zm-2 .6zm-.8-.3zm-.1.3zm-.5-.3v.1h-.3c-.1 0-.1-.1.1-.1zm-.4-.2zm-3.9.1zm1.9.2h.1c.1 0 .1 0 0 0h-.1zm-.1-.3h-.3c-.4 0-.6-.1-.5-.2h.8zm-.9-.3zm-.3-.6zm-.5.2zm-1.3.4zm-.1-1.3zm-.6-.3zm-.5.2zm-1.3 1.6zm-1.5-.9zm-2.8.7h.7c.1-.1-.3-.1-.4-.1h2l-.2-.2h1.4l-.6.2H76c.2 0 .1.1 0 .1h-.3c-.5 0-.5.1-.5.2h-1.6zm-.3-.4zm-.7.2h.6c.1 0 .1 0 0 0h-.4c0 .1.1.1-.1.1h.2zM71.3 96zm-.4.6zm1.1.2c.2.1.3.1.1.2h-.5c-.1 0 0 .1-.2.1h-.5c-.8 0-.9 0-1-.2zm-3.4 0zm-1.1.2h2v.1h-.6c-.3 0-.5-.1-.5-.2h-.9zm-3.6.9zm.7-.7h.2V97h1.1l-.2.4h-1.9v-.1h.9zm-1.6-.8zm-2.8 1.8zm2.2-.3zm-.2-.2h-.4c-.3 0-.4.1-.2.2h-.8c-.4 0-.4-.1-.4-.2s-.3-.1-.3-.1.3-.2.8-.2zm-1.1-.8zm-1.9.4zm-2-.8v-.1zm-.4.8zm-.2.5h-.1c-.2-.1-.2-.1.1-.1zm-.5-.1zm-.3-1c-.2-.1-.2-.2-.1-.2zm0 .6zm-.4-.9zm-1.4.2c.4-.1.3-.1.4-.2.4.1.6.2.6.3s.2.2 0 .2l-1-.2c-.2-.2-.2-.3 0-.3zm.1.7h.6c-.1 0-.1-.1.1-.1h-.7zm-2.2.4zm.4-.9zm-.8.7zm-1 .4zm-1.7-1.5h.8l.3.2h-1c-.2 0-.1 0 0 0zm-9.1 1.9h-.1c.1 0 .1.1 0 .1h.1zm2 .2zm.1-.5zm2.1.4zm1.6-.1h-.6l-.3-.2h.9zm2 .4zm-1-1.2zm.5.3h-.5l-.3-.2zm-1.1-.8zm-1.9.2l-.1-.3zm-.4.2l-.1-.2zm-1-.8h-.1c-.2-.2-.1-.3 0-.3zm-.5-.2zm-2 .6zm-.1.4c.2 0 .3-.1.2-.1H40zm-.6-.2zm-1.1.5h5.4a4.1 4.1 0 0 1 1.7.1h-.3c.1.1 0 .1-.4.2h-1.4c-.3 0-.2-.1-.3-.2h1c-.2-.1-.3-.1.1-.2h-6c0-.1 0-.2-.3-.3zm-.7-.3zm-2.9-.8zm-.3-.2c-.1-.2-.1-.2 0-.2zm-.1.3c-.1-.2-.1-.2 0-.2zm-2.9.7h-.3c-.1 0 0-.1.1-.1h.2zm.5.9zm1.1-.7h-.2v-.1h-.4v-.1h.4c.2 0 .1.1 0 .1.1 0 0 .1 0 .1h.2zm-.2-.9zm.2.3zm-2.3-.7h1.6l-.5.2h-1.1l-.3-.2-.5-.2zm-1 .5zm-.3-.7zm-.1 1.2zm-2.5.4h-.1.1zm.8-.5c.1 0 0-.1 0-.1zM26 96.1h.2c.2-.1-.2-.1-.2-.2l-.2-.2zm-.6 1.6zm-3 1.1h-1l.5-.2h.5c.5-.2.5-.2 0-.1zm.6-.2zm.7-1.5zm-.7-.5zm-.4 1.5h.8l-.6-.2v-.1h1l-.3.2c.1 0 .2.1.1.1h-.9zm-1.3-2h.7c.3 0 .4.1.3.2h-.6c-.4-.1-.7-.2-.7-.3zm-.5.9l.4-.2H21c-.1 0-.1-.1.1-.1h.2c.5 0 .5 0 .2-.1h1.1a4.1 4.1 0 0 1-1.3.2c.3.1.2.2.1.3h-.5zm-1.1 1.6h-.5c-.2 0 0-.1 0-.1h.4zm.5.1zm-1-1.6h-.1zm-.4.2zm1.4.4h-.8l-.7-.2a3.3 3.3 0 0 1 1.4.2zm-3.2.4h-.8V98h.4c.3-.1.5-.1.5-.2h.1c.2.1.1.2.3.3s-.2 0-.6 0zm1.1-1h-1.2l.2-.4h1zM16 95.8zm-.2.6h.1c-.4.1-.3 0-.2 0zm.2.2zm-.6.3zm-3.2.8zm1.6-.1zm-1.8-.9zm-.3.3zm-.9.3zm-2.3.1zm-.1-.7h.4l.4.2H8.1v-.2zm-2.3.4h-.2zM4.9 96zm-3.6-4.7c0-.1.1.2.1.4s-.1.5-.1.4-.1-.1-.2-.2a1.2 1.2 0 0 0 .2-.6zm0 5.1h.1a1.1 1.1 0 0 1-.1.5zm-.1-2a1.5 1.5 0 0 1 0-.2V94v.1a.9.9 0 0 1 0 .1c0 .1-.1.2-.1.2zM1 89.8l.2-.2c0-.1.1.4.1.7v.2h-.2c-.1 0-.1-.1-.1-.4a1.4 1.4 0 0 1 0-.3zm-.2 5.1v-.1zm0-3.8zM2.9 97zm-.4-.2zm-.6.7h.4l-.7-.2h-.4l-.5-.2v-.4c0-.1.1 0 .1.1v.5h.6zm-.3-5.9zm1.5-16c-.1.3-.1.8-.1 1.2v-.2a1.7 1.7 0 0 1 0-.5v-.8s.1.2.1.3zM3 71.4zm0 2.8v.5c-.1.1-.1-.1-.1-.4a1.5 1.5 0 0 1 .1-.1zm0-61.3zm0 19.4v.6zm-1.7-16c.1.2.1-.2.2-.4h.1c0 .3.1.3.1.3s.1.2.1.6-.1.4-.1.3V17c-.1-.3-.1-.3-.2.2s-.1.1-.1 0v-.7c-.1-.1-.1-.2-.1-.1zm0 1.3h.1a1.3 1.3 0 0 1 0 .3 1.7 1.7 0 0 1 0-.4zm-.2 2.5c0 .1 0 .1-.1 0s0-.2 0-.3 0-.2.1-.1a1.5 1.5 0 0 1 0 .5zm0-1.5v.1-.2.2zm0-2.8V15.2zm0-3.5V13.1a.8.8 0 0 1 0-.1v-.7a.7.7 0 0 1 0-.1v.2zm.2 12.6c0 .2-.1.2-.1.2 0-.2.1-.4.1-.4a.5.5 0 0 1 0 .3v0zm.1 1.2V26v-.4.5zm.4 3.2s-.1 0-.1-.2v-.2h.1v.2a.6.6 0 0 1 0 .1zm0-2.4v-.6a1.2 1.2 0 0 1 0-.2v.9zm.1-2.9a.7.7 0 0 1 0-.3h-.2v-.2h.2v.1zm-.1 10.6zm.1 13.1H2a1.9 1.9 0 0 1 0 .3v.1a.5.5 0 0 1 0-.2zm.1 2.9v-.2zm0-5.7h-.1a1.1 1.1 0 0 1 0-.4H2v.3c.1 0 .1.1 0 .1zm-.1 11.4c-.1.4-.1.4-.2.1V55v.6c0 .3 0 .3.1.3s0 .2 0 .3zm0 4.3zm-.1-15.8h-.1a1.7 1.7 0 0 1 0-.7v.5a.7.7 0 0 1 .1.2zm-.1-10c0-.1 0-.1 0 0zM1.4 40zm.1 3.5c0 .1-.1.2-.1.1a2.4 2.4 0 0 1-.1-.7v-1.4h.1a.9.9 0 0 1 .1.5v1.6s.1-.1.1 0zm0 6.2s.1 0 .1.1zm0 1v.4-.4a2.8 2.8 0 0 1 .1-.7c0-.2.1-.1.1 0v1.1a2.2 2.2 0 0 1 0 .2v-.2h-.1v.3h-.1a2 2 0 0 1 0-.6s0-.1.1 0zm0 4.8v0zm-.1-1a1 1 0 0 1 0-.1s.1.1.1.3v.3h.1zm.2 4.5v.2zm-.2-.1v.2zm0 3.4zm0-12.7zm-.1-1.7a2.5 2.5 0 0 1 .1-.7v.6c0 .2 0 .2-.1.1zm0 25.7h.1c.1 0 .1.2.1.7v.1-.4a3.6 3.6 0 0 1 0-.4.4.4 0 0 1 0-.3v-.2.4zm-.1-8.8a.8.8 0 0 1 0 .4v.2a1.2 1.2 0 0 1 0-.4zM1.1 58zm0 2v-.2s.1 0 .1.2a2.2 2.2 0 0 1 0 .6v.2s-.1-.1-.1-.2a4 4 0 0 1 0-.6zm-.3 1.3v-.7a4.4 4.4 0 0 0 0 1v.7a11.6 11.6 0 0 1-.1-1.5c0-.1 0-.2.1-.2 0 .1 0 .1 0 0a1.8 1.8 0 0 1 .1-.6 4.3 4.3 0 0 1 .1 1c-.1.3-.1.4-.2.3zm.1 5.9V67zm.2-4.5v-.2-.7.4a1.8 1.8 0 0 1 0 .3c.1.1 0 .2 0 .1zm.3 14.2h-.1c-.1 0-.1.1-.1.4v-.4L1 76a3 3 0 0 1-.1-.6c0-.4-.1-.4-.1-.4v-.7H1v.4a1.8 1.8 0 0 1 0 .6v.2a1.7 1.7 0 0 0 0 .8v.2h.2v.2zm0 5.9v-.3a1.5 1.5 0 0 1 .1.2zm0-7.4V75v.1zm-.1-8.8a2.4 2.4 0 0 1 .1-1.2 2.1 2.1 0 0 0 .2-1c0-.5 0-.6.1-.7s.1.2.1.7v2.2c0 .5 0 .6-.1.7h-.2zm.2 17.2v-.1h.1zm0-7.8h.1v-1.1a5.1 5.1 0 0 1 0 1zm0-6.2zm.1 12.1v.5a2 2 0 0 1 0-.4v-.9.8zm.1-3.6v-.4-.4a.5.5 0 0 0 0-.2 1 1 0 0 1 .1-.6v-.5c-.1 0-.1-.1-.1-.3a2.9 2.9 0 0 1 0-.3v-.2a3.7 3.7 0 0 1 .1.7h.1v.4h-.1c0 .6 0 .7-.1.7a3.2 3.2 0 0 1 0 .5v.4zm0-8zm.1-1.3H2s.1.1.1.4H2a1.1 1.1 0 0 1-.1-.5zM2 93.3a1.5 1.5 0 0 1 0-.7 3.6 3.6 0 0 1 0 .4 3.1 3.1 0 0 1 0 .3zm0-1.5v0-1.7a12.5 12.5 0 0 1 .1 1.6zM2.1 78a1.9 1.9 0 0 1 0-.3h.1zm.1-5.8h.1zm.2 17.9v-.2a2 2 0 0 1 0-.3h.1v.4zm-.1-4.9v-.6a.5.5 0 0 1 0 .2c.2.3.2.4.1.4zm.4-4.2zm0-3.3c0 .3 0 .3-.1.4h.1zm.1-12.5v.2h-.2v-.8a3 3 0 0 1 0-.6h.2c.1 0 .1 0 .1.4s-.1.5-.1.7zm.2-4.5v-.3.3zm.2-3v-.2.2s-.1.1-.1 0zm-.2-17zm0 17a.7.7 0 0 1 0 .3v.8l.2.3v.5c0 .2-.1.4-.1.1H3V58c-.1-.2 0-.4 0-.4zm0 1.8zm-.1-46v.2-.2zm0 3.6V17zm0 38.1zm0 32zm-.1-84h.1v.3c0-.2-.2-.3-.1-.3zm-.1 23.5h.1c.1 0 .1.1.1.5v-.1a.4.4 0 0 1-.2-.4zm0 24.8v.6h-.2a1.1 1.1 0 0 1 0-.2v-.4zM2.5 9.9zm0 16.8a1.5 1.5 0 0 1 0 .2v.2a.9.9 0 0 1 0-.1v-.3zm-.1-13.1v0zm0 47.6c0-.1.1 0 .1.2s.1.5.1.9v.6c0 .2 0 .3-.1.4s-.1-.1-.1-.3v-.3a1.7 1.7 0 0 0-.1-.7v-.3a1 1 0 0 1 0-.4zm0-40.1c0 .1 0 .1 0 0zm0 42.4v-.4h-.2c-.1 0-.1 0-.1.3a1.7 1.7 0 0 0 0 .7v.2a3 3 0 0 1 .1.8v.3c0 .4-.1.5-.1.5s-.1.1-.1.3a.7.7 0 0 0 .1.3h.1a.8.8 0 0 1 0 .1c-.1.3-.1.4-.2.4v-1.2a19.6 19.6 0 0 0 0-2.5h-.2a.7.7 0 0 1 0-.3v-.6-.5a.7.7 0 0 1 0-.1h.1v.7c.1.3.1.2.2 0s.1 0 .1.2a4.6 4.6 0 0 0 0 .7v.2a.4.4 0 0 1 .2-.1zm-.3-15.6zm.2-32.3v.3-.2a1.3 1.3 0 0 1 0-.4v.3zm0-6.2zm0 49.8zm0 2.3zM2.1 7.8c.1-.1.1 0 .2.3v.4c0 .1-.1-.1-.1-.3zm0 3.1zM2 34.7c0 .1 0 .2-.1.1 0-.1.1-.2.1-.1zm0-21v.1zm0 25.1V39.4 39zM2 6.1c0 .2 0 .3-.1.3zm-.1 11.4zm0 24.1a3.1 3.1 0 0 0 .2.7.4.4 0 0 1 0-.2v.1a2 2 0 0 1 0 .3l-.2.2v-.2a1 1 0 0 1 0-.4v-.6zm0-20a4.3 4.3 0 0 1-.1.7c-.1.5-.2.7-.3.6a1.1 1.1 0 0 1 0-.5v-.3c0-.4-.1-.8-.1-1.2l-.2-.9c0-.2.1-.2.2-.1h.1c.1-.1.1 0 .1.4a2.4 2.4 0 0 1 .1.6v.3a.7.7 0 0 1 .2.4zM1.8 15a1.7 1.7 0 0 1 0 .3c-.1.3-.1.3-.2.3a.7.7 0 0 1-.1-.3c0-.4 0-.6.1-.5l.2.2zm-.1-1.6a2.3 2.3 0 0 1 0 .2c0 .2 0 .2-.1.2s0 0 0-.1zm-.1-4.6a1.2 1.2 0 0 1 0 .5c0 .1 0 .1-.1-.1-.1-.4-.1-.9-.1-1.4h.1a1.8 1.8 0 0 1 0 .3V9v-.2zm0-4.3c-.1-.1 0-.1 0 0zm0-3.9zm1.3 1h-.1a.6.6 0 0 1 0-.1h.1v.2zM7.2.8zM5.3 2.3zm1.2-.2H4.1c-.2 0-.2 0-.1-.1h1.8l.7.2zm1.2-.8l-.5.2h-.5l-1.2-.3h2.2c.2-.1.3 0 0 .1zm2.1-.1zm-1.4.1h.5c.1 0 .1 0 0 .1h-.5zm.5 1.1zm1.5-.7H10l.7.2zm1.3 1zm3.6-1.4zm2.6-.3zm1 1.6zM23.8.8h-.6.6zm-.9.7zm.9 1.2h-2.2c-.1-.1 0-.2.1-.3h2c-.1 0-.2.1 0 .1h.3c.6 0 .6 0 .7.2zm3.1-.5h.3c.1-.2-.3-.2-.3-.1zm.1-.6c.1 0 .1 0 0 0 .1 0 .1.1-.1.1h.1zm1-.1h-1.7c-.3 0-.2-.1 0-.1h.8c.1 0 .1.1.1.1h.8zm.5-.4c-.1.1-.2.1.1.2h-.1zm2.2.9zm-1.6-.3zm1.6.5zm3.2 0h-.8c-.1-.1.2-.2.5-.2zM36 1zm.7.4l.2.2zm.8-.5zm.5.7zm1-.2h-.5c-.2 0-.3 0-.1-.1h.3l.3.2s0-.1 0 0zm0-.6h-.5V.7h.5zm2.1.1V.8h.9c.1.2-.1.2-.7.3zm1.5.3zm3 .1zm.9-.1zm2.9 1zm5.1-.5h-1c-.1 0-.1 0 0-.1h1l.2.2zm1.9.3h.6c.1-.1 0 0-.5 0zm1.6-.6zm3.1.3zm2.4-.5zm-.4.5c-.1 0 0-.1.2-.1h-.2zm2.3.2zm1 .3zm1.7-.4c-.1 0-.1 0 0 0zm.1-.2h-1.8c-.5 0-.5-.1-.2-.1s.3-.1.1-.1-.1 0 0-.1h2.1v.2zm1.2 0zm1.4-.1zm.2-.3zm1.2.3zm1.9-.2zm4 .5zm.9.9zm4.7-1h-1c.1 0 .2.1 0 .1h1.2zm2-.9zm7.1.3h-.1c.2-.1.2 0 .1 0zm1.3 0h.2c.2-.1.1 0-.2 0zm3.2 42.2h-.1a1.7 1.7 0 0 1 .1-.8 3.2 3.2 0 0 1 0 .8zm.2-2.3zm-.1-6.6h.1a2.6 2.6 0 0 1 0 .7h-.1v-.2-.2zm0-25.7zm.4-5.2V3.8c0-.6 0-.8.1-.9h.1a4 4 0 0 1 0 .4 2.6 2.6 0 0 1-.2.2zM.8 41.4v-.1.1zM.8 94.8zM.8 8.5zM82.7 98.3zM3.1 31zM26.7 97.3zM5.4 2.3zM9.9 1.3zM5.4.6zM11.2 98.1zM2.7 95.8zM.5 12.4zM.7 37.6zM68.7 97.9h-.1.1zM2 13.6zM61.2 98.4zM83.5 98.2zM2 13.6zM9.9 1.3zM.5 12.3zM1.9 78.1zM51.1.3zM1.2 31.6zM53.3 99z" fill-rule="evenodd" fill="#606060" style="fill: rgb(96, 96, 96);"></path><path d="M54 97.9v-.1h-.6l-.9.2h.8c.2.1.1.1-.1.1l-.5.2c-.1.1.3.1.4.2h.7c-.3-.1.1-.1 0-.2s.1-.2.3-.2h.3l-.5-.2c0 .2-.2.1.1 0zM52.5 98.1zM.4 84.6c.1.2.1.2.1-.3v-.2 1.5a1.3 1.3 0 0 0 .4-.6c0-.3.1-.2.1-.5v-.2c-.1 0-.2-.1-.2-.7a3 3 0 0 0 0-.4 2.7 2.7 0 0 1 0-.8.5.5 0 0 0 0-.2v.8a1.6 1.6 0 0 1-.2.8v.8zM.4 84.4zM.2 85.1v.3-.2a6.8 6.8 0 0 1 .1-.8 1.5 1.5 0 0 1 0-.6v-.4a2.1 2.1 0 0 0 0-.3 2.6 2.6 0 0 1-.1-.9c0-.1-.1-.2-.1 0v.7A1.9 1.9 0 0 1 0 84v.4a2.1 2.1 0 0 0 0 .6v.6a1 1 0 0 1 0-.4c.2-.4.2-.4.2-.1zM.3 31.8zM.5 29.2a2.5 2.5 0 0 1 0 .4 1.3 1.3 0 0 0 0 .4 3.6 3.6 0 0 1 0 .9c0 .2-.1.3-.1.3H.3a4.6 4.6 0 0 0 0 .6s.1.1.1.2v.2h.2V31c0-.4 0-.8.1-1.2a3.2 3.2 0 0 0 0-.7.6.6 0 0 1 0-.3 1.4 1.4 0 0 0 0-.5v-.5c-.1.5-.2.9-.2 1.4z" fill-rule="evenodd" fill="#606060" style="fill: rgb(96, 96, 96);"></path><path d="M.4 32.2a2.5 2.5 0 0 1 0 .3v.5h.1a1.4 1.4 0 0 0 0-.4V32zM51.6 98.5h-.5c-.7 0-.7.2-.7.3h1.3c-.3-.1-.4-.2-.1-.3zM63.4 98.7h-1l.4.2h1c-.1 0 0 .1.2.1h1zM66.5 98.4c-.3.1-.5.2-.4.3H66c-.1.1 0 .1.5.1h.6c.1-.1.1-.1-.1-.2l-.5-.3zM1.2 31.6zM1.1 30.6v.3a1.6 1.6 0 0 1-.1.8 1.9 1.9 0 0 0-.1.7 1.6 1.6 0 0 0 0 .3c0 .1.1.1.1 0v-.4c0-.3.1-.4.1-.4v-.2c.1-.8.1-.8 0-1.1zM.7 8.5v.4c0 .2 0 .2-.1-.1s0-.2-.1-.1V9a1.5 1.5 0 0 0 .1.5c.1.2.2.3.2-.1v-.9c-.1-.2-.1-.2-.1 0zM.7 9.4zM.8 8.5zM4.3 98.5zM18.9.6zM19.1.5h0zM66.8.4h1.8-1.8zM.3 72.1zM.3 72.2V72a7.6 7.6 0 0 0 0 1v1.4a8.3 8.3 0 0 1 .1-1z" fill-rule="evenodd" fill="#606060" style="fill: rgb(96, 96, 96);"></path><circle cx=".2" cy="74.5" transform="rotate(-19 .1 74.656)"></circle><path d="M2.3.3zM54.7.6c.1 0 .2-.1-.1-.1h-1.3c-.1 0-.1.1 0 .1h1.3zM.6 45.3c.1.1.1-.1.1-.4h.1c.1 0 .1-.2.1-.4V44s-.1.1-.1.3a1 1 0 0 1 0 .3v-.3c0-.1-.1 0-.2.3H.4c0 .3 0 .6.1.6zM.7 54.9v-.3c-.1-.2-.2 0-.2.4a1 1 0 0 0 .1.6 6.1 6.1 0 0 0 .1-.7zM1 34.1c0 .1 0 .1.1 0v-.3c.1.2.1.2.1 0v-.6a1.8 1.8 0 0 0 0-.3l-.2.4a1.5 1.5 0 0 1 0 .5 1.7 1.7 0 0 0 0 .3zM.3 42.4zM.3 43.8zM.3 43.6a1 1 0 0 0 0-.7.9.9 0 0 1 0-.4s-.1 0-.1.2v.6a.8.8 0 0 0 .1.5zM28.3 98.1l.7.2h.4l-.8-.2zM67.5 98.4h-1l.9.2h.1zM97.8 25.5c0 .3.1.4.1.3a1.5 1.5 0 0 0 .1-.7c0-.3-.1-.3-.1-.4v.2c-.1.2-.1.4-.1.6zM.5 86.3c0-.1 0-.1-.1 0a3.7 3.7 0 0 0 0 1.1h.1a3.4 3.4 0 0 0 0-1.1zM68.9 98.3h-.3c-.4 0-.5 0-.4.1h.7zM69.5 98.4zM.2 55.3v-.9s-.1 0-.1.2a2.7 2.7 0 0 0 0 .7zM.4 35.8v-.1c-.1.1-.1.1-.2.4a1.2 1.2 0 0 0 0 .1c.1.1.2 0 .2-.4zM.8 37.7zM.8 37.2a1.8 1.8 0 0 0 0-.4c0-.2 0-.3-.1-.2s-.1.1-.1-.1a11 11 0 0 0 .1 1.1zM70.7.5zM70.8.7h.4c.1 0 .1-.1.1-.1h-.5zM58.1.7c.2 0 .3-.1.1-.1h-.1zM47 .5zM55.5 98.9zM1 85.9a.9.9 0 0 0 0 .4c0 .2.1.4.1.4V86zM70.7.5zM70.7.5zM.7 5.9v-.3c0-.2 0-.3-.1-.4S.5 5.4.5 5v.4c.1.3.1.5.2.5z" fill-rule="evenodd" fill="#606060" style="fill: rgb(96, 96, 96);"></path><circle cx=".6" cy="5.1" transform="rotate(-8.1 .717 5.248)"></circle><path d="M90.6.5zM4.7.2h-.3v.2h.3zM.2 59.2h.1V59H.2a1.3 1.3 0 0 0 0 .2zM.5 88.5v.2a2.2 2.2 0 0 0 0 .3h.1a1.9 1.9 0 0 0 0-.3c0-.3-.1-.3-.1-.2zM97.8 16h.1v-.7a4.9 4.9 0 0 0-.1.7zM55 .6zM54.8.6h-.1.1zM82.3.5zM.9 3v-.3.2a1.7 1.7 0 0 0 0 .2V3zM52.2.3zM51.1.3zM52.5 98.1zM52.7 97.9h-.4c.1.1.2.1.2.2h.2zM.7 42.5v-.3.3zM36.2 98zM.4 13.9v.1a2 2 0 0 0 0 .5c0-.1 0-.2.1-.3zM.4 14.5zM.3 43.8zM.4 44.5a3.3 3.3 0 0 0-.1-.7c0 .4 0 .5.1.7zM.4 44.5zM.3 56.3s.1-.2.1-.3 0-.3-.1-.2v.2c-.1.1-.1.3 0 .3zM74.7 98.4zM75.2 98.4zM11.8 98.5zM0 93.8v0zM40.3 98.6h.3c.1 0 .1 0 0-.1zM48.5 98.8zM48.7 98.9zM.9 45.9v-.1.1zM41 .3zM7.2.4h.1-.1zM1.1 32.8v-.2.6zM.6 3.1a.8.8 0 0 0 0-.1v-.3.4zM.6 71.4a.8.8 0 0 0 0-.1v.2c-.1 0 0 0 0-.1zM34.4 98.2h.1-.1.1-.1zM34.8 98.2zM55.7 98.3zM.3 80.7v.2zM9.4 98.4c-.1 0-.3 0-.2.1h.2zM33.1 98.8zM60.9 98.9zM52.6 98.9zM53.3 99zM3.3 18.2h-.1v.2c.1 0 .1-.1.1-.2zM3.3 24.3zM3.2 24.4zM3.1 85.4c-.1-.3-.1-.3-.1 0v.3-.3zM3.1 85.4v.6a1.7 1.7 0 0 0 0-.6zM3.1 86zM97.9 9.9zM1.2 84.2a.4.4 0 0 0 0 .3v-.3zM60.7.6zM76.5.5zM48.1.5H48h.1zM48.3.5h-.2l.2.1V.5zM.9 30.4v-.1.1zM.9 29.4zM46.1.4zM6.8.2zM6.7.2zM6.7.1zM.6 15.6v-.2a1.9 1.9 0 0 0 0 .2zM.7 15.3zM4.6.1zM.5 14.2zM.5 14.5v.1zM.6 16.5zM9.5 98.1zM21.9 0zM21.8 0zM.5 14.6zM.4 14.8h.1v-.2H.4zM.5 90.2v-.8a2.7 2.7 0 0 0 0 .8zM.4 89.4zM25.8 98.2zM77.4 98.2zM.4 42.1H.3a.8.8 0 0 0 0 .3zM.3 42.4zM.4 89.4a.6.6 0 0 0 0 .1v-.1zM10.1 98.3zM.3 31.9v.2-.2zM38.8 98.4zM39.1 98.3H39v.1l.1-.1zM.3 72zM.2 71.7v.3c.1-.1.1-.2 0-.3zM.2 91.6zM.2 57.3v-.1zM0 97zM17.1 98.7zM34.3 98.8zM60.7 98.8zM54.6 99zM3.3 23.2zM3.3 23.4v-.2zM1.2 58l-.1-.3v.3h.1zM5.5.6zM5.3.6h.1-.1zM4.9.6zM60.9.6zM28.6 97.7h.1-.1zM.9 50.8v-.1.1zM.8 5.7zM.8 5.8zM.8 57.3zM.8 57.3zM.7 9.4zM.8 9.6v-.1.1zM25.9 97.9h-.1.1zM68.7 97.9h.3-.3zM69 97.9zM68.6 97.9h.1-.1zM24 .2h-.1.1zM.7 15.1v.1a.7.7 0 0 0 0-.1zM.6 10.9zM.7 36.5zM.7 36.6zM.7 53.8zM.6 82.8h.1l-.1-.1v.1zM11.3 98.1zM10.8 98zM.6 5.1v.1zM.5 5.2zM.5 5.3zM.5 5.3c0 .1 0 .1 0 0zM.5 12.3zM.5 12.3zM.5 12.3zM.5 24.4v-.2.2zM10.6 98.2zM52.6 98.1zM.4 76c0-.1 0-.2 0 0zM.3 30.7v-.1.3a1.2 1.2 0 0 0 0 .3v-.5zM.3 41zM.4 41.2a.2.2 0 0 0 0-.1zM93.9 98.3zM.3 31.2zM.3 54.4zM.2 85.5zM.2 85.4v-.3a.3.3 0 0 0 0 .3zM.2 85.4zM.1 71.6v-.1.1zM12.7 98.6zM.1 83.1zM.1 83.2zM69.2 98.6zM22.6 98.8zM22.7 98.7zM67.8 98.8h.1-.1zM32.9.8zM1.7 20.9v-.1.1zM1.6 20.2v.1-.1zM1.6 66.5v-.1zM71.2 97zM71.7 96.9zM1.5 43.1zM3 59.5z" fill-rule="evenodd" fill="#a77c5a" style="fill: rgb(96, 96, 96);"></path></g></g></svg>